C:\Users\israe\Dropbox\PhDWork\ExperimentalData\subject7\055\P7S055W09_filtered35.mot
nRows=8
nColumns=28

name C:\Users\israe\Dropbox\PhDWork\ExperimentalData\subject7\055\P7S055W09_filtered35.mot
datacolumns 28
datarows 8
range 1.4950000000 1.5020000000
endheader
time	ground_force_1_vx	ground_force_1_vy	ground_force_1_vz	ground_force_1_px	ground_force_1_py	ground_force_1_pz	ground_moment_1_mx	ground_moment_1_my	ground_moment_1_mz	ground_force_2_vx	ground_force_2_vy	ground_force_2_vz	ground_force_2_px	ground_force_2_py	ground_force_2_pz	ground_moment_2_mx	ground_moment_2_my	ground_moment_2_mz	ground_force_3_vx	ground_force_3_vy	ground_force_3_vz	ground_force_3_px	ground_force_3_py	ground_force_3_pz	ground_moment_3_mx	ground_moment_3_my	ground_moment_3_mz
        1.4950000000	        0.0000000000	        0.0000000000	        0.0000000000	        0.1988394961	        0.0000558755	       -0.3004071324	       -0.0000000000	       -0.0000000000	        0.0000000000	       -4.8170771375	      559.6012127863	      -19.7576361514	        0.2029003516	       -0.0000795827	        0.4543649445	       52.1972337002	        0.6947237370	        7.6199773489	        0.0000000000	        0.0000000000	       -0.0000000000	        0.2076431971	        0.0000770316	        1.3583900146	       -0.0000000000	       -0.0000000000	       -0.0000000000	
        1.4960000000	        0.0000000000	        0.0000000000	        0.0000000000	        0.1988394961	        0.0000558755	       -0.3004071324	       -0.0000000000	       -0.0000000000	        0.0000000000	       -4.9076992080	      559.5281197427	      -19.3857439326	        0.2029003516	       -0.0000795827	        0.4543649445	       52.0554752687	        0.7187985374	        7.6333468909	        0.0000000000	        0.0000000000	       -0.0000000000	        0.2076431971	        0.0000770316	        1.3583900146	       -0.0000000000	       -0.0000000000	       -0.0000000000	
        1.4970000000	        0.0000000000	        0.0000000000	        0.0000000000	        0.1988394961	        0.0000558755	       -0.3004071324	       -0.0000000000	       -0.0000000000	        0.0000000000	       -4.9910466961	      559.4651706018	      -19.0231495015	        0.2029003516	       -0.0000795827	        0.4543649445	       51.9128463161	        0.7425743715	        7.6450181241	        0.0000000000	        0.0000000000	       -0.0000000000	        0.2076431971	        0.0000770316	        1.3583900146	       -0.0000000000	       -0.0000000000	       -0.0000000000	
        1.4980000000	        0.0000000000	        0.0000000000	        0.0000000000	        0.1988394961	        0.0000558755	       -0.3004071324	       -0.0000000000	       -0.0000000000	        0.0000000000	       -5.0681606476	      559.4090225255	      -18.6705440042	        0.2029003516	       -0.0000795827	        0.4543649445	       51.7685807714	        0.7657433574	        7.6544893810	        0.0000000000	        0.0000000000	       -0.0000000000	        0.2076431971	        0.0000770316	        1.3583900146	       -0.0000000000	       -0.0000000000	       -0.0000000000	
        1.4990000000	        0.0000000000	        0.0000000000	        0.0000000000	        0.1988394961	        0.0000558755	       -0.3004071324	       -0.0000000000	       -0.0000000000	        0.0000000000	       -5.1399922772	      559.3519621120	      -18.3275346272	        0.2029003516	       -0.0000795827	        0.4543649445	       51.6217430840	        0.7880694581	        7.6614554344	        0.0000000000	        0.0000000000	       -0.0000000000	        0.2076431971	        0.0000770316	        1.3583900146	       -0.0000000000	       -0.0000000000	       -0.0000000000	
        1.5000000000	        0.0000000000	        0.0000000000	        0.0000000000	        0.1988394961	        0.0000558755	       -0.3004071324	       -0.0000000000	       -0.0000000000	        0.0000000000	       -5.2070135535	      559.2846873215	      -17.9931209737	        0.2029003516	       -0.0000795827	        0.4543649445	       51.4714612342	        0.8093283202	        7.6660375796	        0.0000000000	        0.0000000000	       -0.0000000000	        0.2076431971	        0.0000770316	        1.3583900146	       -0.0000000000	       -0.0000000000	       -0.0000000000	
        1.5010000000	        0.0000000000	        0.0000000000	        0.0000000000	        0.1988394961	        0.0000558755	       -0.3004071324	       -0.0000000000	       -0.0000000000	        0.0000000000	       -5.2695311227	      559.1985859415	      -17.6659860826	        0.2029003516	       -0.0000795827	        0.4543649445	       51.3169179043	        0.8292985554	        7.6687728480	        0.0000000000	        0.0000000000	       -0.0000000000	        0.2076431971	        0.0000770316	        1.3583900146	       -0.0000000000	       -0.0000000000	       -0.0000000000	
        1.5020000000	        0.0000000000	        0.0000000000	        0.0000000000	        0.1988394961	        0.0000558755	       -0.3004071324	       -0.0000000000	       -0.0000000000	        0.0000000000	       -5.3281890182	      559.0870459958	      -17.3450889627	        0.2029003516	       -0.0000795827	        0.4543649445	       51.1573438129	        0.8478263026	        7.6703093649	        0.0000000000	        0.0000000000	       -0.0000000000	        0.2076431971	        0.0000770316	        1.3583900146	       -0.0000000000	       -0.0000000000	       -0.0000000000	
